<svg id="Layer_1" height="512" viewBox="0 0 100 100" width="512" xmlns="http://www.w3.org/2000/svg"><path d="m49.999 10v80h40.001v-80zm33.335 37.761v35.572h-26.667v-66.667h26.667l-16.667 16.667v9.426l16.667-16.667v12.24l-10 10.001v9.428z" fill="#88d3e1"/><path d="m73.334 57.761v-9.428l10-10.001v-12.24l-16.667 16.667v-9.426l16.667-16.667h-26.667v66.667h26.667v-35.572z" fill="#e0f2f7"/><path d="m56.667 56.667h6.667v6.666h-6.667z" fill="#455a64"/><path d="m56.667 56.667h3.2v6.666h-3.2z" fill="#263238"/><path d="m83.334 38.333-4 4v9.427l4-4.001z" fill="#00abc0"/><path d="m79.334 30.092 4-4v-9.426l-4 4z" fill="#00abc0"/><path d="m23.694 90-4.443-13.334h14.83l-4.443 13.334h7.028l6.667-20h-33.333l6.666 20z" fill="#bdbcbc"/><path d="m23.694 90-4.443-13.334h14.83l-4.443 13.334z" fill="#f4f5f5"/><path d="m19.251 76.666 4.443 13.334h4l-4.443-13.334z" fill="#e0e0e0"/><path d="m29.999 70v-7.051c-1.073.244-2.186.384-3.333.384s-2.26-.14-3.333-.384v7.051z" fill="#7a5649"/><path d="m23.333 66.8h6.667v3.2h-6.667z" fill="#4e342e"/><path d="m26.666 56.667c-4.596 0-8.333-3.738-8.333-8.334 0-4.597 3.737-8.333 8.333-8.333 4.597 0 8.333 3.736 8.333 8.333 0 4.596-3.736 8.334-8.333 8.334z" fill="#f1f7e9"/><path d="m26.666 33.333c-8.284 0-15 6.711-15 15 0 8.282 6.716 15 15 15s14.999-6.718 14.999-15c0-8.289-6.715-15-14.999-15zm0 23.334c-4.596 0-8.333-3.738-8.333-8.334 0-4.597 3.737-8.333 8.333-8.333 4.597 0 8.333 3.736 8.333 8.333 0 4.596-3.736 8.334-8.333 8.334z" fill="#7cb342"/><path d="m22.333 48.333c0-3.906 2.703-7.183 6.333-8.082-.642-.159-1.31-.251-2-.251-4.596 0-8.333 3.736-8.333 8.333 0 4.596 3.737 8.334 8.333 8.334.69 0 1.358-.094 2-.252-3.631-.9-6.333-4.176-6.333-8.082z" fill="#dbebc7"/><g fill="#b6e2eb"><path d="m83.334 26.092-4 4v12.241l4-4z"/><path d="m83.334 16.666h-4v4z"/><path d="m79.334 51.76v27.573h-22.667v4h26.667v-35.574z"/></g></svg>