<svg id="Layer_1" height="512" viewBox="0 0 100 100" width="512" xmlns="http://www.w3.org/2000/svg"><path d="m83.334 23.333c0-7.364-5.971-13.333-13.335-13.333-7.362 0-13.333 5.97-13.333 13.333v26.666h6.668v-26.666c0-3.686 2.981-6.667 6.665-6.667 3.681 0 6.668 2.982 6.668 6.667l-6.668 3.333v3.334h20.001v-3.334z" fill="#bdbcbc"/><path d="m26.667 56.667c-3.617 0-6.855-2.717-8.613-6.668h17.226c-1.758 3.951-4.997 6.668-8.613 6.668z" fill="#f4f5f5"/><path d="m10 43.333c0 11.043 7.461 20 16.667 20s16.667-8.957 16.667-20zm16.667 13.334c-3.617 0-6.855-2.717-8.613-6.668h17.226c-1.758 3.951-4.997 6.668-8.613 6.668z" fill="#bdbcbc"/><path d="m16.667 16.665h20v6.667h-20z" fill="#e0f2f7"/><path d="m16.667 16.665h4v6.667h-4z" fill="#b6e2eb"/><path d="m10 10v20h33.333v-20zm26.667 13.333h-20v-6.667h20z" fill="#88d3e1"/><path d="m23.333 36.666h6.666v6.667h-6.666z" fill="#455a64"/><path d="m23.333 40.133h6.666v3.2h-6.666z" fill="#263238"/><path d="m16.667 63.333h20v20h-20z" fill="#eeeae8"/><path d="m19.603 52.667c1.825 2.455 4.336 4 7.063 4s5.239-1.545 7.063-4z" fill="#e0e0e0"/><path d="m10 56.667v33.334h33.333v-33.334zm26.667 26.666h-20v-20h20z" fill="#c3996b"/><path d="m29.999 70h6.667v6.666h-6.667z" fill="#ffc00e"/><path d="m33.466 70h3.2v6.666h-3.2z" fill="#f68e1e"/><path d="m90 80h-13.333c-14.733 0-26.667-11.946-26.667-26.667v-3.334h40v6.668h-33.06c1.596 9.446 9.831 16.666 19.727 16.666h13.333z" fill="#88d3e1"/><path d="m90 56.667h-33.06c1.596 9.446 9.831 16.666 19.727 16.666h13.333z" fill="#e0f2f7"/><path d="m61.028 56.667h-4.088c1.596 9.446 9.831 16.666 19.727 16.666h13.333v-4h-13.333c-7.61 0-14.072-5.289-15.639-12.666z" fill="#b6e2eb"/><path d="m69.999 90.001h6.668v-10.001c-2.302 0-4.536-.29-6.668-.839z" fill="#bdbcbc"/><g fill="#9d9d9d"><path d="m56.666 45.999h6.668v4h-6.668z"/><path d="m69.999 79.161v4.101c2.148.479 4.378.739 6.668.739v-4.001c-2.302 0-4.536-.29-6.668-.839z"/><path d="m76.667 23.333h6.667c0-1.393-.216-2.738-.612-4h-7.397c.839 1.114 1.342 2.496 1.342 4z"/></g><path d="m20.667 79.333v-16h-4v20h20v-4z" fill="#d7ccc8"/><path d="m41.406 52.667h-7.676c-1.825 2.455-4.336 4-7.063 4h12.406c.905-1.212 1.694-2.551 2.333-4z" fill="#9d9d9d"/><path d="m26.667 56.667c-2.727 0-5.239-1.545-7.063-4h-7.676c.639 1.449 1.429 2.788 2.333 4z" fill="#9d9d9d"/></svg>