<svg viewBox="0 0 32 32" xmlns="http://www.w3.org/2000/svg"><g id="Layer_2" data-name="Layer 2"><path d="m23.506 19.136a1 1 0 0 1 -1-.913l-.276-3.154a6.345 6.345 0 0 0 -6.23-5.95 6.346 6.346 0 0 0 -6.234 5.95l-.276 3.154a1 1 0 0 1 -.355.681 1.017 1.017 0 0 1 -.735.227l-2.988-.302a1 1 0 0 1 -.9-1.082l.35-3.154a11.368 11.368 0 0 1 11.213-10.613 11.368 11.368 0 0 1 11.215 10.613l.275 3.154a1 1 0 0 1 -.9 1.082l-2.988.302c-.034.003-.065.005-.096.005zm-16.917-2.185 1 .094.184-2.145a8.334 8.334 0 0 1 8.227-7.781 8.334 8.334 0 0 1 8.227 7.781l.187 2.149 1-.094-.188-2.164a9.381 9.381 0 0 0 -9.226-8.791 9.381 9.381 0 0 0 -9.223 8.787z" fill="#88d3e1"/><g fill="#bdbcbc"><path d="m9 29h-2a5 5 0 0 1 0-10h2a1 1 0 0 1 1 1v8a1 1 0 0 1 -1 1zm-2-8a3 3 0 0 0 0 6h1v-6z"/><path d="m25 29h-2a1 1 0 0 1 -1-1v-8a1 1 0 0 1 1-1h2a5 5 0 0 1 0 10zm-1-2h1a3 3 0 0 0 0-6h-1z"/><path d="m10.5 30a2.5 2.5 0 0 1 -2.5-2.5v-7a2.5 2.5 0 0 1 5 0v7a2.5 2.5 0 0 1 -2.5 2.5zm0-10a.5.5 0 0 0 -.5.5v7a.5.5 0 0 0 1 0v-7a.5.5 0 0 0 -.5-.5z"/><path d="m21.5 30a2.5 2.5 0 0 1 -2.5-2.5v-7a2.5 2.5 0 0 1 5 0v7a2.5 2.5 0 0 1 -2.5 2.5zm0-10a.5.5 0 0 0 -.5.5v7a.5.5 0 0 0 1 0v-7a.5.5 0 0 0 -.5-.5z"/></g></g></svg>